<?xml version="1.0" encoding="UTF-8"?>
<svg version="1.1" xmlns="http://www.w3.org/2000/svg" width="512" height="512">
<path d="M0 0 C1.20049406 -0.00872064 1.20049406 -0.00872064 2.42524052 -0.01761746 C5.12400532 -0.03228879 7.82187076 -0.01829931 10.52062988 -0.00457001 C12.46814186 -0.00917611 14.41565036 -0.01552706 16.36315155 -0.02347898 C21.72802851 -0.04023539 27.09262224 -0.03189731 32.45750046 -0.01953411 C38.23808498 -0.0105117 44.01861961 -0.02443935 49.79919434 -0.0354538 C61.12856818 -0.05327369 72.45783623 -0.04938359 83.78721428 -0.03780323 C92.99190008 -0.02878282 102.19655617 -0.02753887 111.40124512 -0.0318985 C113.3636556 -0.0328179 113.3636556 -0.0328179 115.36571074 -0.03375587 C118.02314568 -0.03503472 120.68058062 -0.03633158 123.33801556 -0.03764623 C147.56630949 -0.04913871 171.79454987 -0.03722043 196.02283466 -0.01627585 C218.1503859 0.00270724 240.27784507 0.00100876 262.40539551 -0.01811981 C287.25373009 -0.0395285 312.102013 -0.04796347 336.95035553 -0.03567076 C339.59821064 -0.03439651 342.24606577 -0.03313903 344.8939209 -0.0318985 C346.84829677 -0.03097285 346.84829677 -0.03097285 348.84215498 -0.03002849 C358.03959861 -0.02656961 367.23700966 -0.03241553 376.43444824 -0.04181671 C387.63759776 -0.05301593 398.84063513 -0.05004045 410.04377174 -0.02869374 C415.76371054 -0.01815534 421.4834621 -0.01410892 427.20339966 -0.02729034 C432.43410968 -0.03916237 437.66445797 -0.03273775 442.89513493 -0.01138014 C444.7927823 -0.00689197 446.69045991 -0.00922955 448.58808804 -0.01888329 C451.15755532 -0.03095757 453.72576562 -0.01866467 456.29516602 0 C457.41356542 -0.014047 457.41356542 -0.014047 458.55455875 -0.02837777 C461.83614702 0.01962848 463.84914618 0.30503229 466.60689878 2.13775301 C468.6158748 5.22239346 468.64885181 7.18233791 468.65094757 10.85651398 C468.66137856 12.17176811 468.67180955 13.48702225 468.68255663 14.84213257 C468.67390802 16.30538397 468.66488138 17.76863318 468.65551758 19.23188019 C468.66012472 20.78341254 468.66647638 22.33494053 468.67442656 23.88645935 C468.69116882 28.15680948 468.68285144 32.42680336 468.67048168 36.697155 C468.66145345 41.29981943 468.67538982 45.90242141 468.68640137 50.50507355 C468.70421505 59.52436315 468.70033394 68.54351983 468.6887508 77.56281471 C468.67972794 84.89107227 468.6784875 92.2192925 468.68284607 99.54755402 C468.683459 100.58939299 468.68407193 101.63123197 468.68470344 102.70464182 C468.6859823 104.82092477 468.68727916 106.93720771 468.6885938 109.05349064 C468.70000795 128.91148283 468.68687282 148.76940123 468.66539234 168.62738132 C468.64752061 185.6772252 468.65062448 202.72696015 468.66906738 219.77680206 C468.69045937 239.56231989 468.69890924 259.347773 468.68661833 279.13330078 C468.68534409 281.24192555 468.68408661 283.35055032 468.68284607 285.45917511 C468.68192042 287.0155191 468.68192042 287.0155191 468.68097606 288.60330439 C468.67751814 295.92523148 468.68336102 303.24711763 468.69276428 310.56903839 C468.70396708 319.48849573 468.7009805 328.40781221 468.67964131 337.32725334 C468.66910768 341.88065471 468.66504826 346.43382098 468.67823792 350.98722076 C468.69012002 355.15212073 468.68366895 359.31656675 468.66232771 363.48142529 C468.6578438 364.99145653 468.66016782 366.5015258 468.66983086 368.01153278 C468.68192501 370.05773418 468.66717531 372.10404236 468.65094757 374.15021515 C468.65029816 375.28872673 468.64964875 376.42723831 468.64897966 377.60025024 C468.14758301 380.50336456 468.14758301 380.50336456 466.60689878 382.86897612 C463.22531981 385.11627338 460.22100107 385.05603726 456.29516602 385.00672913 C455.09467196 385.01544977 455.09467196 385.01544977 453.8699255 385.02434659 C451.1711607 385.03901792 448.47329526 385.02502843 445.77453613 385.01129913 C443.82702416 385.01590523 441.87951565 385.02225618 439.93201447 385.03020811 C434.5671375 385.04696451 429.20254377 385.03862644 423.83766556 385.02626324 C418.05708103 385.01724083 412.2765464 385.03116848 406.49597168 385.04218292 C395.16659784 385.06000282 383.83732978 385.05611271 372.50795174 385.04453236 C363.30326593 385.03551194 354.09860985 385.034268 344.8939209 385.03862762 C343.58564724 385.03924056 342.27737359 385.03985349 340.92945528 385.04048499 C338.27202033 385.04176385 335.61458539 385.0430607 332.95715046 385.04437536 C308.72885652 385.05586783 284.50061615 385.04394956 260.27233136 385.02300497 C238.14478012 385.00402189 216.01732094 385.00572037 193.88977051 385.02484894 C169.04143593 385.04625763 144.19315301 385.0546926 119.34481049 385.04239988 C116.69695537 385.04112564 114.04910025 385.03986816 111.40124512 385.03862762 C109.44686925 385.03770197 109.44686925 385.03770197 107.45301104 385.03675762 C98.2555674 385.03329873 89.05815636 385.03914465 79.86071777 385.04854584 C68.65756825 385.05974505 57.45453088 385.05676958 46.25139427 385.03542286 C40.53145548 385.02488446 34.81170392 385.02083805 29.09176636 385.03401947 C23.86105633 385.0458915 18.63070804 385.03946687 13.40003109 385.01810926 C11.50238371 385.0136211 9.60470611 385.01595868 7.70707798 385.02561241 C5.1376107 385.03768669 2.56940039 385.0253938 0 385.00672913 C-1.11839941 385.02077612 -1.11839941 385.02077612 -2.25939274 385.0351069 C-5.54098101 384.98710064 -7.55398017 384.70169684 -10.31173277 382.86897612 C-12.32070878 379.78433567 -12.3536858 377.82439122 -12.35578156 374.15021515 C-12.36621254 372.83496101 -12.37664353 371.51970688 -12.38739061 370.16459656 C-12.37874201 368.70134515 -12.36971536 367.23809594 -12.36035156 365.77484894 C-12.36495871 364.22331659 -12.37131037 362.6717886 -12.37926054 361.12026978 C-12.3960028 356.84991965 -12.38768543 352.57992576 -12.37531567 348.30957413 C-12.36628744 343.7069097 -12.3802238 339.10430771 -12.39123535 334.50165558 C-12.40904903 325.48236597 -12.40516793 316.46320929 -12.39358479 307.44391441 C-12.38456193 300.11565685 -12.38332149 292.78743663 -12.38768005 285.45917511 C-12.38829299 284.41733613 -12.38890592 283.37549716 -12.38953742 282.30208731 C-12.39081629 280.18580436 -12.39211314 278.06952142 -12.39342779 275.95323849 C-12.40484193 256.0952463 -12.3917068 236.23732789 -12.37022632 216.3793478 C-12.35235459 199.32950393 -12.35545847 182.27976897 -12.37390137 165.22992706 C-12.39529335 145.44440923 -12.40374322 125.65895612 -12.39145231 105.87342834 C-12.39017808 103.76480358 -12.38892059 101.6561788 -12.38768005 99.54755402 C-12.38706295 98.50999135 -12.38644585 97.47242869 -12.38581005 96.40342474 C-12.38235213 89.08149764 -12.388195 81.75961149 -12.39759827 74.43769073 C-12.40880107 65.5182334 -12.40581448 56.59891692 -12.38447529 47.67947578 C-12.37394166 43.12607442 -12.36988225 38.57290814 -12.3830719 34.01950836 C-12.394954 29.8546084 -12.38850293 25.69016237 -12.36716169 21.52530384 C-12.36267778 20.01527259 -12.36500181 18.50520333 -12.37466484 16.99519634 C-12.386759 14.94899495 -12.3720093 12.90268677 -12.35578156 10.85651398 C-12.35513215 9.7180024 -12.35448274 8.57949081 -12.35381365 7.40647888 C-11.85241699 4.50336456 -11.85241699 4.50336456 -10.31173277 2.13775301 C-6.93015379 -0.10954425 -3.92583506 -0.04930814 0 0 Z M4.14758301 16.50336456 C4.14758301 42.57336456 4.14758301 68.64336456 4.14758301 95.50336456 C151.98758301 95.50336456 299.82758301 95.50336456 452.14758301 95.50336456 C452.14758301 69.43336456 452.14758301 43.36336456 452.14758301 16.50336456 C304.30758301 16.50336456 156.46758301 16.50336456 4.14758301 16.50336456 Z M4.14758301 112.50336456 C4.14758301 196.98336456 4.14758301 281.46336456 4.14758301 368.50336456 C151.98758301 368.50336456 299.82758301 368.50336456 452.14758301 368.50336456 C452.14758301 284.02336456 452.14758301 199.54336456 452.14758301 112.50336456 C304.30758301 112.50336456 156.46758301 112.50336456 4.14758301 112.50336456 Z " fill="#000000" transform="translate(27.8524169921875,63.49663543701172)"/>
<path d="M0 0 C2.25663956 -0.017217 4.51181503 -0.06110521 6.76806641 -0.10522461 C8.20425356 -0.11535158 9.64045315 -0.12386768 11.07666016 -0.13061523 C13.03708252 -0.15248901 13.03708252 -0.15248901 15.03710938 -0.17480469 C18.39697266 0.29516602 18.39697266 0.29516602 20.82128906 2.19677734 C22.9960797 5.09301619 22.96793598 6.88378441 22.79150391 10.39282227 C22.18309158 13.32645397 20.78550752 14.58906969 18.39697266 16.29516602 C15.38547263 17.29899936 14.07170536 17.28731349 11.00244141 16.97875977 C1.06077967 16.25500133 1.06077967 16.25500133 -7.86181641 19.9597168 C-11.85581152 24.06993929 -15.02202778 28.73631069 -17.9699707 33.63696289 C-19.60302734 36.29516602 -19.60302734 36.29516602 -20.96211243 38.06983948 C-25.99532881 44.87403095 -27.97655695 52.26496417 -30.09130859 60.32250977 C-30.48240366 61.76257918 -30.8750244 63.20223503 -31.26908875 64.64149475 C-32.29409384 68.39992127 -33.29974714 72.16324522 -34.30084229 75.92810059 C-35.52575465 80.52051852 -36.77305558 85.10689619 -38.01757336 89.69403172 C-38.98401345 93.25752609 -39.94694109 96.82184426 -40.89924622 100.3891449 C-41.24017807 101.66129349 -41.58110992 102.93344208 -41.93237305 104.24414062 C-42.23182327 105.36727158 -42.5312735 106.49040253 -42.83979797 107.64756775 C-43.60302734 110.29516602 -43.60302734 110.29516602 -44.60302734 112.29516602 C-44.01134766 112.4537207 -43.41966797 112.61227539 -42.81005859 112.77563477 C-34.95458588 115.09511366 -30.77407607 119.1337497 -26.61474609 126.12719727 C-23.56931525 132.65312051 -24.27566676 139.64017278 -26.60302734 146.29516602 C-28.64571663 150.08873183 -30.29155512 152.06919597 -33.79052734 154.60766602 C-37.27089519 157.93335084 -37.11317249 159.50225877 -37.34912109 164.08422852 C-37.88955803 168.79018703 -40.80938243 171.54120334 -44.10302734 174.67016602 C-49.26802743 177.06820177 -54.00325614 177.04898137 -59.60302734 176.29516602 C-64.49323988 174.0247102 -67.12234305 171.06571274 -69.60302734 166.29516602 C-69.60302734 164.31516602 -69.60302734 162.33516602 -69.60302734 160.29516602 C-78.18302734 160.62516602 -86.76302734 160.95516602 -95.60302734 161.29516602 C-96.59302734 164.26516602 -97.58302734 167.23516602 -98.60302734 170.29516602 C-102.95545197 174.64759064 -106.25855047 176.42786002 -112.35302734 176.60766602 C-117.67297259 176.53011579 -120.39610695 175.57656392 -124.60302734 172.29516602 C-128.57326552 167.30691805 -129.24622764 163.21720664 -128.98583984 156.88110352 C-128.21507705 151.67452222 -125.67351141 149.13788751 -121.66552734 145.98266602 C-116.79441108 143.29858154 -112.43468631 143.16799533 -106.93261719 143.13745117 C-106.28321671 143.13237045 -105.63381622 143.12728973 -104.96473694 143.12205505 C-103.56248675 143.11140049 -102.16022007 143.10276128 -100.75794601 143.09593582 C-98.53870653 143.08409373 -96.31965702 143.0646313 -94.10049438 143.04281616 C-87.79378544 142.98135188 -81.48710187 142.9270549 -75.18017578 142.89379883 C-71.31631736 142.8728805 -67.45281574 142.83761224 -63.58916092 142.79304123 C-62.11798923 142.77887089 -60.64675455 142.77015644 -59.17551804 142.76698685 C-57.12151281 142.76208981 -55.06846062 142.73896954 -53.01464844 142.71166992 C-51.84614349 142.70358307 -50.67763855 142.69549622 -49.47372437 142.68716431 C-46.62205422 142.52045308 -46.62205422 142.52045308 -44.73355103 140.98788452 C-42.77917937 138.06162909 -43.11977333 135.67794411 -43.60302734 132.29516602 C-47.92786781 128.54337881 -52.40766394 128.87784682 -57.82788086 128.92626953 C-58.74877502 128.92250305 -59.66966919 128.91873657 -60.61846924 128.91485596 C-62.61331223 128.90843126 -64.60818584 128.90874622 -66.60302925 128.91504097 C-69.75940043 128.92415155 -72.91517768 128.91392839 -76.07151794 128.89842224 C-85.04351895 128.85831493 -94.0154731 128.85712418 -102.98754883 128.859375 C-108.47880918 128.85942603 -113.96974803 128.84029681 -119.46092033 128.81004143 C-122.57210198 128.79919371 -125.68267617 128.81135863 -128.7938385 128.8238678 C-130.69842129 128.81496607 -132.60299909 128.80489263 -134.50756836 128.79345703 C-135.37365219 128.80320053 -136.23973602 128.81294403 -137.13206482 128.82298279 C-142.97240139 128.75285539 -142.97240139 128.75285539 -146.08517456 126.49369812 C-148.29934787 123.28658135 -149.23420484 119.84093516 -150.23193359 116.12329102 C-150.46313904 115.30449966 -150.69434448 114.48570831 -150.93255615 113.6421051 C-151.69008945 110.94661699 -152.42827602 108.24626576 -153.16552734 105.54516602 C-153.68629843 103.66949303 -154.20803971 101.79408916 -154.73071289 99.91894531 C-155.81542674 96.01999991 -156.89208693 92.11893767 -157.96435547 88.21655273 C-159.30302237 83.35834238 -160.67594595 78.51074976 -162.06495667 73.66671753 C-163.10939021 70.02132301 -164.14237721 66.37274359 -165.17330933 62.72351074 C-165.66545986 60.98899428 -166.16177533 59.25565381 -166.66238403 57.52355957 C-167.36013772 55.10325672 -168.04022884 52.67862955 -168.71630859 50.25219727 C-168.92398865 49.546642 -169.1316687 48.84108673 -169.34564209 48.114151 C-170.60200606 43.51546543 -170.64538065 39.94121865 -169.60302734 35.29516602 C-167.63571738 32.48472321 -165.88805151 31.93577903 -162.60302734 31.29516602 C-160.893372 31.23234157 -159.18124037 31.22589984 -157.47073364 31.2580719 C-155.91518013 31.28240799 -155.91518013 31.28240799 -154.32820129 31.30723572 C-153.19573471 31.32975906 -152.06326813 31.35228241 -150.89648438 31.37548828 C-148.4145747 31.4149024 -145.93265031 31.45339758 -143.45071411 31.49110413 C-141.47458319 31.52244288 -141.47458319 31.52244288 -139.45853043 31.55441475 C-131.74337416 31.66855016 -124.0271828 31.70091721 -116.31135583 31.74252236 C-108.15452321 31.78683079 -100.00056743 31.8593851 -91.84521484 32.02539062 C-85.35853872 32.15727037 -78.87476693 32.2243497 -72.38670433 32.21712154 C-68.95843899 32.21560856 -65.53718735 32.24498481 -62.11047745 32.3529377 C-47.98185999 33.21807081 -47.98185999 33.21807081 -35.1042099 28.54069138 C-30.82920337 24.38275332 -27.71565701 19.68046811 -24.84011459 14.48289299 C-23.07992979 11.37009414 -20.99552918 8.59329668 -18.85302734 5.73266602 C-18.26005859 4.88575195 -17.66708984 4.03883789 -17.05615234 3.16625977 C-13.28616701 -1.68810307 -5.64240992 0.03003238 0 0 Z M-150.60302734 48.29516602 C-148.27346716 57.61340673 -145.94748958 66.89342526 -143.36865234 76.13891602 C-142.99135986 77.50064941 -142.99135986 77.50064941 -142.60644531 78.88989258 C-141.69084363 82.19226234 -140.77175046 85.49366328 -139.85302734 88.79516602 C-137.79052734 96.22016602 -135.72802734 103.64516602 -133.60302734 111.29516602 C-109.84302734 111.29516602 -86.08302734 111.29516602 -61.60302734 111.29516602 C-58.79802734 101.27141602 -55.99302734 91.24766602 -53.10302734 80.92016602 C-52.21550781 77.75374512 -51.32798828 74.58732422 -50.41357422 71.32495117 C-49.71610356 68.82810089 -49.01882462 66.33119703 -48.32177734 63.83422852 C-48.13893188 63.18336273 -47.95608643 62.53249695 -47.7677002 61.86190796 C-47.23058908 59.94922038 -46.69700905 58.0355423 -46.16357422 56.12182617 C-45.71056946 54.50300034 -45.71056946 54.50300034 -45.24841309 52.85147095 C-44.52143157 50.41139312 -44.52143157 50.41139312 -44.60302734 48.29516602 C-79.58302734 48.29516602 -114.56302734 48.29516602 -150.60302734 48.29516602 Z " fill="#000000" transform="translate(225.60302734375,215.704833984375)"/>
<path d="M0 0 C1.00182541 -0.00445668 1.00182541 -0.00445668 2.02388972 -0.0090034 C4.272424 -0.01770764 6.52090514 -0.0192001 8.76945496 -0.02069092 C10.37738153 -0.0253179 11.98530701 -0.03034239 13.5932312 -0.03573608 C17.96934156 -0.04887422 22.34543657 -0.05530786 26.72156358 -0.05974674 C29.45436896 -0.06267536 32.18717011 -0.06677978 34.91997337 -0.07125092 C43.46668981 -0.08492995 52.01339664 -0.09459445 60.56012326 -0.09845281 C70.43261202 -0.10293386 80.30496234 -0.12048223 90.17740899 -0.1494534 C97.8037942 -0.17105795 105.43014043 -0.18115644 113.05655593 -0.18249393 C117.61356178 -0.18354289 122.17043758 -0.18947003 126.72741127 -0.20731354 C131.01443478 -0.22377291 135.30123019 -0.22596016 139.588274 -0.21717453 C141.16165019 -0.21640299 142.73503853 -0.22076226 144.30838394 -0.23063278 C146.45691972 -0.24332106 148.60464381 -0.23749322 150.75317383 -0.22705078 C152.55645252 -0.22925062 152.55645252 -0.22925062 154.39616108 -0.2314949 C158.17932854 0.2122588 160.8544309 1.42781041 163.56706238 4.14044189 C163.80534363 6.06622314 163.80534363 6.06622314 163.87956238 8.45294189 C163.9356366 9.62276611 163.9356366 9.62276611 163.99284363 10.81622314 C163.39408674 14.0846667 162.16338264 15.0984137 159.56706238 17.14044189 C156.47794342 17.64101315 156.47794342 17.64101315 152.772995 17.64164734 C152.09044631 17.64718174 151.40789763 17.65271613 150.70466566 17.65841824 C148.41819281 17.67202863 146.13281087 17.65705471 143.84635925 17.64215088 C142.20695532 17.64593394 140.56755459 17.65143388 138.92816162 17.65852356 C134.47565691 17.6724972 130.0235378 17.66129511 125.57105446 17.64481235 C120.91375543 17.63097259 116.25647903 17.6374207 111.59916687 17.64094543 C103.77769244 17.64364841 95.9563714 17.63016447 88.13493347 17.60699463 C79.0894278 17.58038433 70.04417861 17.57863746 60.99864721 17.59038299 C52.30080219 17.60115843 43.60305005 17.59497555 34.9052124 17.58082771 C31.20193286 17.57506587 27.49872123 17.57515215 23.79544067 17.57989311 C19.43530243 17.5846619 15.07544539 17.57456537 10.71536064 17.55293846 C9.1141651 17.54736907 7.51294254 17.5469067 5.91174507 17.55189133 C3.72789352 17.5578377 1.54490363 17.54535266 -0.63887024 17.52812195 C-1.86150322 17.52569205 -3.0841362 17.52326216 -4.34381866 17.52075863 C-7.68150685 17.10983931 -9.05787379 16.47191107 -11.43293762 14.14044189 C-12.49672665 11.49205046 -12.68171797 8.9765379 -12.43293762 6.14044189 C-8.92074071 0.44826069 -6.41448837 0.01588682 0 0 Z " fill="#000000" transform="translate(292.4329376220703,334.85955810546875)"/>
<path d="M0 0 C0.67367601 -0.00453111 1.34735202 -0.00906223 2.04144245 -0.01373065 C4.29764137 -0.02638572 6.55359924 -0.0247536 8.80982971 -0.02310181 C10.42790538 -0.02908631 12.04597819 -0.03589168 13.66404724 -0.04345703 C18.0586493 -0.06113064 22.45317348 -0.06581294 26.84780765 -0.0670886 C30.51588994 -0.06898758 34.18395408 -0.07634497 37.85202938 -0.08343279 C46.50512713 -0.09971897 55.15818325 -0.10460148 63.81129456 -0.10317993 C72.73978862 -0.10197792 81.66804118 -0.12309106 90.59647411 -0.15466726 C98.26112457 -0.18080879 105.92569604 -0.19154815 113.59039074 -0.19026911 C118.16863784 -0.18975892 122.74667025 -0.19547381 127.32487297 -0.21662521 C131.63004597 -0.23597233 135.9347987 -0.23615645 140.23998642 -0.22159195 C141.81981456 -0.21949846 143.39966876 -0.2242369 144.97945213 -0.23631287 C147.13686192 -0.25173598 149.29281716 -0.24247889 151.45019531 -0.22705078 C153.26063906 -0.22868508 153.26063906 -0.22868508 155.10765743 -0.2303524 C158.91656744 0.3656966 160.58291345 1.56985995 163.28858948 4.26742554 C163.95265198 6.48617554 163.95265198 6.48617554 163.91358948 8.76742554 C163.9264801 9.52023804 163.93937073 10.27305054 163.95265198 11.04867554 C162.9559717 14.37876022 161.16069562 15.38494487 158.28858948 17.26742554 C155.09204006 17.7707901 155.09204006 17.7707901 151.41223145 17.77536011 C150.39325212 17.78472005 150.39325212 17.78472005 149.35368735 17.79426908 C147.08415466 17.81018637 144.81569792 17.79760099 142.54615784 17.78500366 C140.91645686 17.79042533 139.28676078 17.79754825 137.65707397 17.8062439 C133.23563256 17.8244735 128.81456463 17.81741168 124.39311671 17.80472755 C119.76651297 17.79459971 115.13994118 17.80399247 110.51333618 17.81027222 C102.74492145 17.81754852 94.97665885 17.80796061 87.20826721 17.78890991 C78.22460972 17.76713352 69.24131524 17.77419812 60.25766653 17.79621553 C52.5454335 17.81436089 44.83330981 17.81693233 37.12106234 17.80646086 C32.51438321 17.80022214 27.90787478 17.7994008 23.30120659 17.81260681 C18.97136225 17.82415243 14.64198657 17.81616346 10.31219292 17.79302979 C8.7222827 17.78773609 7.13233311 17.78926779 5.54243851 17.79808044 C3.373746 17.80899408 1.20656006 17.79532583 -0.96203613 17.77536011 C-2.78297586 17.77309795 -2.78297586 17.77309795 -4.64070225 17.7707901 C-8.3327063 17.16557989 -9.49626777 16.23433707 -11.71141052 13.26742554 C-12.57187034 9.82558627 -13.04237317 7.38066353 -12.02391052 3.95492554 C-8.8504701 -0.12521215 -4.87721225 0.01354806 0 0 Z " fill="#000000" transform="translate(292.71141052246094,374.7325744628906)"/>
<path d="M0 0 C0.66465448 -0.00297112 1.32930896 -0.00594224 2.01410449 -0.0090034 C4.24571329 -0.0176889 6.47726844 -0.01919851 8.70889282 -0.02069092 C10.30711481 -0.02531916 11.9053357 -0.03034383 13.5035553 -0.03573608 C17.8486157 -0.04886054 22.19366065 -0.055305 26.53873777 -0.05974674 C29.25261996 -0.06267707 31.96649791 -0.06678178 34.68037796 -0.07125092 C43.16942589 -0.08492526 51.65846415 -0.09459252 60.14752233 -0.09845281 C69.95095082 -0.10293516 79.75424 -0.12049152 89.55762613 -0.1494534 C97.13307652 -0.17105758 104.70848769 -0.18115639 112.28396857 -0.18249393 C116.80966077 -0.18354276 121.335222 -0.18946723 125.86088181 -0.20731354 C130.11755036 -0.22377266 134.37398918 -0.22596029 138.63067818 -0.21717453 C140.19276735 -0.21640302 141.75486878 -0.22076182 143.31692696 -0.23063278 C145.45008444 -0.24332192 147.58242448 -0.23749283 149.71557617 -0.22705078 C150.9090888 -0.22851734 152.10260143 -0.2299839 153.33228111 -0.2314949 C156.81266282 0.1791271 158.69675053 1.05273245 161.48477173 3.14044189 C163.04948405 6.26986655 163.18179131 9.75126413 162.48477173 13.14044189 C160.25247459 16.06401626 159.07187974 17.04530493 155.39565277 17.64101315 C154.17301979 17.64122243 152.95038681 17.64143171 151.69070435 17.64164734 C151.00815567 17.64718174 150.32560699 17.65271613 149.62237501 17.65841824 C147.33590216 17.67202863 145.05052022 17.65705471 142.7640686 17.64215088 C141.12466467 17.64593394 139.48526394 17.65143388 137.84587097 17.65852356 C133.39336626 17.6724972 128.94124715 17.66129511 124.48876381 17.64481235 C119.83146478 17.63097259 115.17418838 17.6374207 110.51687622 17.64094543 C102.69540179 17.64364841 94.87408075 17.63016447 87.05264282 17.60699463 C78.00713715 17.58038433 68.96188796 17.57863746 59.91635656 17.59038299 C51.21851154 17.60115843 42.5207594 17.59497555 33.82292175 17.58082771 C30.11964221 17.57506587 26.41643058 17.57515215 22.71315002 17.57989311 C18.35301178 17.5846619 13.99315474 17.57456537 9.63306999 17.55293846 C8.03187445 17.54736907 6.43065189 17.5469067 4.82945442 17.55189133 C2.64560287 17.5578377 0.46261298 17.54535266 -1.72116089 17.52812195 C-2.94379387 17.52569205 -4.16642685 17.52326216 -5.42610931 17.52075863 C-8.7637975 17.10983931 -10.14016444 16.47191107 -12.51522827 14.14044189 C-13.57943837 11.49100216 -13.75857805 8.97767911 -13.51522827 6.14044189 C-9.98934281 0.2219913 -6.50931255 0.0162338 0 0 Z " fill="#000000" transform="translate(293.5152282714844,294.85955810546875)"/>
<path d="M0 0 C0.68254868 -0.00538554 1.36509736 -0.01077108 2.06832933 -0.01631981 C4.35461506 -0.03062338 6.64032375 -0.02349011 8.92663574 -0.01637268 C10.56603969 -0.02207497 12.20543967 -0.02903868 13.84483337 -0.03717041 C18.29725956 -0.0551314 22.74948899 -0.05392808 27.20194054 -0.04822803 C30.91734443 -0.0451408 34.63271028 -0.05122333 38.34810877 -0.05726677 C47.11145846 -0.07131968 55.87471068 -0.06974399 64.63806152 -0.05836487 C73.68360207 -0.046879 82.72884629 -0.0609654 91.77434778 -0.08776134 C99.53750528 -0.10989883 107.30056963 -0.11656025 115.06375647 -0.11068493 C119.70176126 -0.10730993 124.33957602 -0.1097665 128.97755432 -0.12693596 C133.33773355 -0.14237232 137.69747272 -0.13848666 142.05763435 -0.11963081 C143.65883867 -0.1159359 145.26007536 -0.11907963 146.86124992 -0.1295166 C149.04529952 -0.14266739 151.2278795 -0.13123408 153.41186523 -0.11352539 C155.2458147 -0.11321146 155.2458147 -0.11321146 157.11681366 -0.1128912 C160.7934773 0.48288778 161.96565865 1.47180234 164.20593262 4.38768005 C164.93364494 7.12730293 164.78564838 9.61982144 164.20593262 12.38768005 C162.33578167 14.81887628 160.92454917 16.02837178 158.20593262 17.38768005 C156.0761433 17.48844952 153.94312415 17.52280857 151.81095886 17.52812195 C151.14715881 17.53109307 150.48335875 17.53406419 149.79944354 17.53712535 C147.56472872 17.54582937 145.33006736 17.54732203 143.09533691 17.54881287 C141.49726242 17.55343986 139.89918903 17.55846436 138.30111694 17.56385803 C133.95186523 17.57699602 129.60262897 17.58342978 125.25336051 17.58786869 C122.53730609 17.59079734 119.82125592 17.59490176 117.10520363 17.59937286 C108.61081292 17.61305187 100.11643188 17.62271638 91.62203091 17.62657475 C81.81010233 17.63105578 71.99831304 17.64860403 62.18642682 17.67757535 C54.60675033 17.69918019 47.02711307 17.7092784 39.44740611 17.71061587 C34.9183456 17.71166482 30.38941595 17.71759154 25.8603878 17.73543549 C21.59962869 17.75189537 17.33909909 17.75408187 13.07831955 17.74529648 C11.51461867 17.74452497 9.95090556 17.74888386 8.38723564 17.75875473 C6.25183541 17.77144387 4.11725175 17.76561472 1.9818573 17.75517273 C0.18964013 17.75737257 0.18964013 17.75737257 -1.63878345 17.75961685 C-5.14823642 17.34593151 -6.99127731 16.50683653 -9.79406738 14.38768005 C-11.87316928 11.26902721 -12.07566113 10.85028483 -11.66906738 7.38768005 C-11.60461426 6.70705505 -11.54016113 6.02643005 -11.47375488 5.32518005 C-9.60867662 0.00863512 -4.95023193 0.00983823 0 0 Z " fill="#000000" transform="translate(291.7940673828125,215.61231994628906)"/>
<path d="M0 0 C0.68663223 -0.00709439 1.37326447 -0.01418877 2.08070374 -0.02149814 C4.38119509 -0.03909879 6.68000133 -0.0209653 8.98046875 -0.00291443 C10.62972789 -0.00805252 12.27898154 -0.01533297 13.92822266 -0.02459717 C18.40765661 -0.04313366 22.88649643 -0.03015864 27.36590576 -0.01050687 C32.05123604 0.0058625 36.73652818 -0.00293087 41.421875 -0.00802612 C49.29046128 -0.012549 57.15880999 0.00333476 65.02734375 0.03126526 C74.12743677 0.06331807 83.22710128 0.06330209 92.32722473 0.04605049 C101.07741678 0.03019257 109.82745156 0.03691422 118.57763672 0.0539875 C122.30326518 0.06086424 126.02876782 0.05981918 129.75439453 0.05244255 C134.14087656 0.04478736 138.52687031 0.05688047 142.91326904 0.08429146 C144.52413483 0.09118448 146.13504614 0.09126343 147.74591064 0.08407593 C149.9431331 0.07540108 152.13884179 0.09130099 154.3359375 0.11352539 C156.18094849 0.11773577 156.18094849 0.11773577 158.06323242 0.12203121 C161.74809042 0.72276496 162.92375977 1.70404991 165.16796875 4.62818909 C165.69921875 6.62818909 165.69921875 6.62818909 165.66796875 8.62818909 C165.6834375 9.61818909 165.6834375 9.61818909 165.69921875 10.62818909 C164.91141447 13.59404049 163.55703803 14.72479069 161.16796875 16.62818909 C158.06323242 17.13434696 158.06323242 17.13434696 154.3359375 17.14285278 C153.30598915 17.15327108 153.30598915 17.15327108 152.25523376 17.16389984 C149.95498145 17.18219302 147.65575782 17.17189999 145.35546875 17.16163635 C143.70620959 17.16869366 142.0569569 17.17743788 140.40771484 17.18774414 C135.92838124 17.21026794 131.44940045 17.20729168 126.97003174 17.19842267 C123.2322499 17.19331724 119.49453463 17.20060163 115.75675964 17.20789474 C106.9406453 17.22490289 98.12470402 17.22131828 89.30859375 17.2046051 C80.20845616 17.18767678 71.108798 17.20352591 62.00871277 17.23582798 C54.19883164 17.26250168 46.38909997 17.26980609 38.57917786 17.2613129 C33.91319132 17.25637791 29.24749341 17.25863026 24.58154297 17.27910042 C20.19500858 17.2974232 15.80916544 17.29154107 11.42266846 17.26690102 C9.81179145 17.2618825 8.20086209 17.26540987 6.59002686 17.27804947 C4.39255138 17.29392977 2.19736639 17.27908169 0 17.25637817 C-1.23000732 17.25579186 -2.46001465 17.25520555 -3.72729492 17.25460148 C-6.83203125 16.62818909 -6.83203125 16.62818909 -9.2277832 14.27642727 C-11.2036398 11.01475032 -11.45760779 9.38164833 -10.83203125 5.62818909 C-7.81284378 0.64421697 -5.72375225 0.00272835 0 0 Z " fill="#000000" transform="translate(290.83203125,255.37181091308594)"/>
<path d="M0 0 C1.02471405 -0.00960754 2.0494281 -0.01921509 3.10519409 -0.02911377 C4.76459518 -0.03548859 4.76459518 -0.03548859 6.45751953 -0.04199219 C8.16465622 -0.0505423 8.16465622 -0.0505423 9.90628052 -0.05926514 C12.31544057 -0.06871598 14.72461355 -0.07524945 17.13378906 -0.07910156 C20.8187514 -0.08881033 24.5031568 -0.119835 28.18798828 -0.15136719 C30.52782872 -0.15789696 32.86767314 -0.16314753 35.20751953 -0.16699219 C36.30973846 -0.17933899 37.4119574 -0.19168579 38.5475769 -0.20440674 C40.09410446 -0.19990509 40.09410446 -0.19990509 41.671875 -0.1953125 C42.57549774 -0.19895813 43.47912048 -0.20260376 44.41012573 -0.20635986 C47.53095993 0.24248206 49.41873507 1.33222996 51.96533203 3.16113281 C53.63969974 6.50986823 53.1716725 10.28146143 53.20361328 13.96582031 C53.21168503 14.84134552 53.21975677 15.71687073 53.22807312 16.618927 C53.24191425 18.47330748 53.25263628 20.32771344 53.26049805 22.18212891 C53.27772232 25.01806847 53.32160846 27.85284568 53.36572266 30.68847656 C53.37584858 32.48924923 53.384365 34.29003182 53.39111328 36.09082031 C53.40862137 36.93885223 53.42612946 37.78688416 53.44416809 38.66061401 C53.44124252 39.45468658 53.43831696 40.24875916 53.43530273 41.06689453 C53.44116898 41.76257538 53.44703522 42.45825623 53.45307922 43.17501831 C52.72464428 46.14121725 51.3631871 47.32215017 48.96533203 49.16113281 C46.38525391 49.66906738 46.38525391 49.66906738 43.43408203 49.67871094 C42.32613281 49.69131958 41.21818359 49.70392822 40.07666016 49.71691895 C38.88492188 49.70882202 37.69318359 49.7007251 36.46533203 49.69238281 C34.62358398 49.69812317 34.62358398 49.69812317 32.74462891 49.70397949 C30.14891744 49.70670123 27.55317867 49.69932192 24.95751953 49.68261719 C20.98033604 49.66121356 17.00495922 49.68241244 13.02783203 49.70800781 C10.5069947 49.70536459 7.9861585 49.70023972 5.46533203 49.69238281 C4.27359375 49.70047974 3.08185547 49.70857666 1.85400391 49.71691895 C0.19208008 49.69800598 0.19208008 49.69800598 -1.50341797 49.67871094 C-2.47730469 49.67552856 -3.45119141 49.67234619 -4.45458984 49.66906738 C-7.80404745 49.00966669 -8.98976882 47.8561474 -11.03466797 45.16113281 C-11.53587341 43.18847656 -11.53587341 43.18847656 -11.53637695 41.09863281 C-11.5457579 40.31101563 -11.55513885 39.52339844 -11.56480408 38.71191406 C-11.5535701 37.87015625 -11.54233612 37.02839844 -11.53076172 36.16113281 C-11.53221695 35.2884375 -11.53367218 34.41574219 -11.53517151 33.51660156 C-11.53351379 31.67411964 -11.52196662 29.83162368 -11.5012207 27.98925781 C-11.47226882 25.17095043 -11.48061334 22.35452491 -11.49365234 19.53613281 C-11.48741456 17.74445701 -11.47902331 15.95278715 -11.46826172 14.16113281 C-11.47119736 13.319375 -11.474133 12.47761719 -11.47715759 11.61035156 C-11.42088641 8.11622143 -11.3644762 5.77663059 -9.69506836 2.66113281 C-6.73160062 -0.01605374 -3.80789474 0.02882418 0 0 Z M4.96533203 17.16113281 C4.96533203 22.11113281 4.96533203 27.06113281 4.96533203 32.16113281 C15.52533203 32.16113281 26.08533203 32.16113281 36.96533203 32.16113281 C36.96533203 27.21113281 36.96533203 22.26113281 36.96533203 17.16113281 C26.40533203 17.16113281 15.84533203 17.16113281 4.96533203 17.16113281 Z " fill="#000000" transform="translate(59.03466796875,94.8388671875)"/>
<path d="M0 0 C5.59764124 4.37092412 8.60527439 9.84094523 10.0859375 16.74609375 C10.75480395 23.30098497 9.11698975 28.9726609 6.0859375 34.74609375 C1.51689331 40.21705339 -4.30879888 44.25514222 -11.515625 45.0234375 C-19.47803054 45.29762502 -26.49609975 43.93576072 -32.52734375 38.3671875 C-38.08150083 31.87429964 -39.71614049 25.23009428 -39.3203125 16.7890625 C-38.26304357 8.86971157 -34.25196987 4.4081374 -28.20703125 -0.62109375 C-19.76451631 -6.6329698 -8.36926714 -5.48272399 0 0 Z M-19.6640625 14.87109375 C-22.11345256 17.56016134 -22.11345256 17.56016134 -22.5390625 20.80859375 C-22.12663558 23.88450366 -22.12663558 23.88450366 -19.8515625 26.18359375 C-16.93503341 28.0203009 -16.93503341 28.0203009 -13.2890625 27.80859375 C-9.82727062 27.03618949 -9.82727062 27.03618949 -7.9140625 24.49609375 C-6.73319796 21.24871627 -6.60368962 19.94012765 -7.9140625 16.74609375 C-10.13894129 14.34945418 -10.13894129 14.34945418 -12.9140625 12.74609375 C-16.96576578 12.33846208 -16.96576578 12.33846208 -19.6640625 14.87109375 Z " fill="#000000" transform="translate(326.9140625,99.25390625)"/>
<path d="M0 0 C5.82116841 6.08576698 8.06589539 10.89137484 8.3125 19.4375 C8.00126961 27.62777346 6.4462839 32.6117816 0.4375 38.1875 C-5.76393597 42.98903375 -11.39769793 44.50928091 -19.18359375 44.28515625 C-26.73499415 43.27509632 -32.35496101 39.55958295 -37.09375 33.71875 C-41.19200431 27.18369583 -41.02628623 20.36820496 -40.25 12.875 C-38.35862903 6.28599136 -34.98718817 1.76959665 -29.2890625 -2.0078125 C-19.50229184 -7.3699129 -9.04409188 -5.91344469 0 0 Z M-21 13.4375 C-23.56301244 15.76327139 -23.56301244 15.76327139 -23.8125 19.375 C-23.50025244 22.86547482 -23.50025244 22.86547482 -21.625 25.3125 C-18.53314769 27.34661336 -16.88632575 27.48105429 -13.25 26.875 C-10.72993156 25.43838689 -10.72993156 25.43838689 -9.25 22.875 C-8.5 19.375 -8.5 19.375 -9.25 15.875 C-11.37685929 13.3232714 -11.37685929 13.3232714 -14.25 11.875 C-18.1975115 11.54566039 -18.1975115 11.54566039 -21 13.4375 Z " fill="#000000" transform="translate(264.25,100.125)"/>
<path d="M0 0 C5.67337104 4.99142995 9.57952093 9.85904836 10.20703125 17.53125 C10.48277436 24.96610137 9.25600103 30.40710947 5.3125 36.6875 C-0.36562544 42.36562544 -6.19407858 45.09334415 -14.1875 45.3125 C-20.88807263 45.21435579 -25.9318558 43.69805677 -31.0078125 39.234375 C-36.18165902 33.73581008 -38.66186942 28.55037113 -39.375 21.0625 C-39.00143618 13.4268555 -36.33906378 7.27525464 -31.08203125 1.73046875 C-21.89860429 -5.90228574 -10.01509084 -6.02834521 0 0 Z M-20 15 C-21.90701775 17.54269034 -22.00587759 18.85599893 -21.875 22.0625 C-21.20795705 25.01251564 -21.20795705 25.01251564 -19.375 26.9375 C-15.88680246 28.49800943 -13.63567102 27.99154664 -10 27 C-7.83333333 25.5 -7.83333333 25.5 -7 23 C-7.06715253 19.17230571 -7.15226202 16.90620267 -9.8125 14.0625 C-13.6153256 12.21541328 -16.61180548 12.74120365 -20 15 Z " fill="#000000" transform="translate(455,99)"/>
<path d="M0 0 C5.75983879 4.8845162 9.34003177 10.71095886 10.27734375 18.22265625 C10.5990721 25.72536142 8.5344203 31.4014005 3.875 37.25 C-1.39199768 42.84756239 -6.90330138 45.17265911 -14.5625 45.4375 C-23.18416502 45.04123963 -28.4096673 42.52970626 -34.30078125 36.1640625 C-38.67405552 30.59442125 -39.63351578 24.81042948 -39.41015625 17.80859375 C-38.35385594 10.5754516 -34.6663672 4.59606398 -28.87890625 0.18359375 C-19.53105719 -5.70496813 -9.527214 -5.60609617 0 0 Z M-19.9375 15 C-22.33186879 17.89125758 -22.33186879 17.89125758 -22.0625 21.625 C-21.24290062 24.95198217 -21.24290062 24.95198217 -19.375 27 C-15.88418213 28.46981805 -13.60851044 27.98413921 -10 27 C-7.65427929 24.88128452 -7.10456028 23.5974873 -6.5625 20.5 C-7.15654898 17.10543442 -8.24235533 16.0319487 -11 14 C-15.09013618 12.52058904 -16.29959357 12.52312754 -19.9375 15 Z " fill="#000000" transform="translate(391,99)"/>
</svg>
